# xmcd CD database file
#
# Track frame offsets:
#	150
#	11430
#	25512
#	36550
#	53325
#	65802
#	80145
#	94902
#	109100
#	120410
#
# Disc length: 1789 seconds
#
# Revision: 0
# Processed by: cddbd v1.4PL0 Copyright (c) Steve Scherf et al.
# Submitted via: CDex 1.40Release
#
DISCID=7a06fb0a
DTITLE=Donna Fargo - The Happiest Girl in the Whole U.S.A.
DYEAR=1999
DGENRE=Country
TTITLE0=The Happiest Girl in the Whole U.S.A.
TTITLE1=You Can't Be a Beacon (If your Light Don't Shine)
TTITLE2=Superman
TTITLE3=U.S. of A.
TTITLE4=Funny Face
TTITLE5=I'll Try A Little BIt Harder
TTITLE6=You Were Always There
TTITLE7=Whatever I Say
TTITLE8=Little Girl Gone
TTITLE9=Don't Be Angry
EXTD=YEAR: 1999 ID3G: 2
EXTT0=
EXTT1=
EXTT2=
EXTT3=
EXTT4=
EXTT5=
EXTT6=
EXTT7=
EXTT8=
EXTT9=
PLAYORDER=
